<svg width="1051" height="387" viewBox="0 0 1051 387" fill="none" xmlns="http://www.w3.org/2000/svg">
<rect width="1051" height="387" rx="10" fill="white"/>
<rect width="1051" height="387" fill="#89D0D5"/>
<ellipse cx="30" cy="29.5" rx="20" ry="19.5" fill="white"/>
<ellipse cx="30" cy="357.5" rx="20" ry="19.5" fill="white"/>
<ellipse cx="1023" cy="29.5" rx="20" ry="19.5" fill="white"/>
<ellipse cx="1023" cy="357.5" rx="20" ry="19.5" fill="white"/>
<rect x="59" y="55" width="944" height="276" rx="10" fill="#151313"/>
<rect x="86" y="80" width="890" height="226" rx="10" fill="#87AD34"/>
<rect x="79" width="22" height="32" fill="white"/>
<ellipse cx="90" cy="31" rx="11" ry="8" fill="white"/>
<rect x="79" width="22" height="32" fill="white"/>
<ellipse cx="90" cy="31" rx="11" ry="8" fill="white"/>
<circle cx="90" cy="30" r="4" fill="#88DFE2"/>
<rect x="110" width="22" height="32" fill="white"/>
<ellipse cx="121" cy="31" rx="11" ry="8" fill="white"/>
<circle cx="121" cy="30" r="4" fill="#88DFE2"/>
<rect x="141" width="22" height="32" fill="white"/>
<ellipse cx="152" cy="31" rx="11" ry="8" fill="white"/>
<circle cx="152" cy="30" r="4" fill="#88DFE2"/>
<rect x="296" width="22" height="32" fill="white"/>
<ellipse cx="307" cy="31" rx="11" ry="8" fill="white"/>
<circle cx="307" cy="30" r="4" fill="#88DFE2"/>
<rect x="327" width="22" height="32" fill="white"/>
<ellipse cx="338" cy="31" rx="11" ry="8" fill="white"/>
<circle cx="338" cy="30" r="4" fill="#7C9F31"/>
<rect x="172" width="22" height="32" fill="white"/>
<ellipse cx="183" cy="31" rx="11" ry="8" fill="white"/>
<circle cx="338" cy="30" r="4" fill="#88DFE2"/>
<rect x="172" width="22" height="32" fill="white"/>
<ellipse cx="183" cy="31" rx="11" ry="8" fill="white"/>
<circle cx="183" cy="30" r="4" fill="#88DFE2"/>
<rect x="482" width="22" height="32" fill="white"/>
<ellipse cx="493" cy="31" rx="11" ry="8" fill="white"/>
<circle cx="493" cy="30" r="4" fill="#88DFE2"/>
<rect x="389" width="22" height="32" fill="white"/>
<ellipse cx="400" cy="31" rx="11" ry="8" fill="white"/>
<circle cx="400" cy="30" r="4" fill="#88DFE2"/>
<rect x="420" width="22" height="32" fill="white"/>
<ellipse cx="431" cy="31" rx="11" ry="8" fill="white"/>
<circle cx="431" cy="30" r="4" fill="#88DFE2"/>
<rect x="451" width="22" height="32" fill="white"/>
<ellipse cx="462" cy="31" rx="11" ry="8" fill="white"/>
<circle cx="462" cy="30" r="4" fill="#88DFE2"/>
<rect x="358" width="22" height="32" fill="white"/>
<ellipse cx="369" cy="31" rx="11" ry="8" fill="white"/>
<circle cx="369" cy="30" r="4" fill="#88DFE2"/>
<rect x="203" width="22" height="32" fill="white"/>
<ellipse cx="214" cy="31" rx="11" ry="8" fill="white"/>
<circle cx="214" cy="30" r="4" fill="#88DFE2"/>
<rect x="234" width="22" height="32" fill="white"/>
<ellipse cx="245" cy="31" rx="11" ry="8" fill="white"/>
<circle cx="245" cy="30" r="4" fill="#88DFE2"/>
<rect x="265" width="22" height="32" fill="white"/>
<ellipse cx="276" cy="31" rx="11" ry="8" fill="white"/>
<circle cx="276" cy="30" r="4" fill="#88DFE2"/>
<line x1="486" y1="332.5" x2="576" y2="332.5" stroke="white" stroke-width="3"/>
<line x1="878" y1="332.5" x2="968" y2="332.5" stroke="white" stroke-width="3"/>
<line x1="878" y1="53.5" x2="968" y2="53.5" stroke="white" stroke-width="3"/>
<line x1="93" y1="53.5" x2="183" y2="53.5" stroke="white" stroke-width="3"/>
<line x1="94" y1="332.5" x2="184" y2="332.5" stroke="white" stroke-width="3"/>
<line x1="486" y1="53.5" x2="576" y2="53.5" stroke="white" stroke-width="3"/>
<line x1="59.4999" y1="143.974" x2="60.4999" y2="241.975" stroke="#89D0D5" stroke-width="5"/>
<line x1="1001.5" y1="143.974" x2="1002.5" y2="241.975" stroke="#89D0D5" stroke-width="5"/>
<line x1="84" y1="65" x2="974" y2="65" stroke="#424242" stroke-width="4"/>
<line x1="84" y1="320" x2="974" y2="320" stroke="#424242" stroke-width="4"/>
</svg>
