<svg width="349" height="387" viewBox="0 0 349 387" fill="none" xmlns="http://www.w3.org/2000/svg">
<g clip-path="url(#clip0)">
<path d="M46 0H302V387H46V0Z" fill="#E3D9D9" fill-opacity="0.74"/>
<line x1="102" y1="7" x2="102" y2="363" stroke="#CCC9C9" stroke-width="4"/>
<circle cx="68.5" cy="24.5" r="11" fill="#383838" stroke="#BFBFBF" stroke-width="3"/>
<circle cx="202.5" cy="24.5" r="11" fill="#383838" stroke="#BFBFBF" stroke-width="3"/>
<circle cx="162.5" cy="24.5" r="11" fill="#383838" stroke="#BFBFBF" stroke-width="3"/>
<circle cx="123.5" cy="24.5" r="11" fill="#383838" stroke="#BFBFBF" stroke-width="3"/>
<circle cx="68.5" cy="74.5" r="11" fill="#383838" stroke="#BFBFBF" stroke-width="3"/>
<circle cx="202.5" cy="74.5" r="11" fill="#383838" stroke="#BFBFBF" stroke-width="3"/>
<circle cx="162.5" cy="74.5" r="11" fill="#383838" stroke="#BFBFBF" stroke-width="3"/>
<circle cx="123.5" cy="74.5" r="11" fill="#383838" stroke="#BFBFBF" stroke-width="3"/>
<circle cx="68.5" cy="124.5" r="11" fill="#383838" stroke="#BFBFBF" stroke-width="3"/>
<circle cx="202.5" cy="124.5" r="11" fill="#383838" stroke="#BFBFBF" stroke-width="3"/>
<circle cx="162.5" cy="124.5" r="11" fill="#383838" stroke="#BFBFBF" stroke-width="3"/>
<circle cx="123.5" cy="124.5" r="11" fill="#383838" stroke="#BFBFBF" stroke-width="3"/>
<circle cx="68.5" cy="174.5" r="11" fill="#383838" stroke="#BFBFBF" stroke-width="3"/>
<circle cx="202.5" cy="174.5" r="11" fill="#383838" stroke="#BFBFBF" stroke-width="3"/>
<circle cx="162.5" cy="174.5" r="11" fill="#383838" stroke="#BFBFBF" stroke-width="3"/>
<circle cx="123.5" cy="174.5" r="11" fill="#383838" stroke="#BFBFBF" stroke-width="3"/>
<circle cx="68.5" cy="224.5" r="11" fill="#383838" stroke="#BFBFBF" stroke-width="3"/>
<circle cx="202.5" cy="224.5" r="11" fill="#383838" stroke="#BFBFBF" stroke-width="3"/>
<circle cx="162.5" cy="224.5" r="11" fill="#383838" stroke="#BFBFBF" stroke-width="3"/>
<circle cx="123.5" cy="224.5" r="11" fill="#383838" stroke="#BFBFBF" stroke-width="3"/>
<circle cx="202.5" cy="274.5" r="11" fill="#383838" stroke="#BFBFBF" stroke-width="3"/>
<rect x="229" y="20" width="30" height="330" fill="#C4C4C4"/>
<circle cx="244" cy="23" r="15" fill="#C4C4C4"/>
<circle cx="244" cy="349" r="15" fill="#C4C4C4"/>
<path d="M62 24.5C62 28.156 64.7502 31 68 31C71.2498 31 74 28.156 74 24.5C74 20.844 71.2498 18 68 18C64.7502 18 62 20.844 62 24.5Z" fill="#418DD9" stroke="#9FBCD9" stroke-width="2"/>
<path d="M29 111H4.76837e-07" stroke="#9FBCD9" stroke-width="2"/>
<path d="M66.5 24.5L22 24.5" stroke="#418DD9" stroke-width="5"/>
<path d="M63.5 21L21.5 21" stroke="#9FBCD9" stroke-width="2"/>
<path d="M22 105.5L22.5 22" stroke="#9FBCD9" stroke-width="2"/>
<path d="M29 112L29 27" stroke="#9FBCD9" stroke-width="2"/>
<line x1="64" y1="28" x2="29" y2="28" stroke="#9FBCD9" stroke-width="2"/>
<path d="M21 104H-1" stroke="#9FBCD9" stroke-width="2"/>
<path d="M25.5 110L25.5 22" stroke="#418DD9" stroke-width="5"/>
<line x1="27" y1="107.5" y2="107.5" stroke="#418DD9" stroke-width="5"/>
<path d="M62 224.5C62 220.844 64.7502 218 68 218C71.2498 218 74 220.844 74 224.5C74 228.156 71.2498 231 68 231C64.7502 231 62 228.156 62 224.5Z" fill="#418DD9" stroke="#9FBCD9" stroke-width="2"/>
<path d="M28 142H-1" stroke="#9FBCD9" stroke-width="2"/>
<line y1="-2.5" x2="46" y2="-2.5" transform="matrix(-1 0 0 1 68.9998 228)" stroke="#418DD9" stroke-width="5"/>
<path d="M64 228.5H21.5" stroke="#9FBCD9" stroke-width="2"/>
<path d="M21.9998 148.5L21.9998 229.5" stroke="#9FBCD9" stroke-width="2"/>
<path d="M29 141L29 223" stroke="#9FBCD9" stroke-width="2"/>
<path d="M63 222H29" stroke="#9FBCD9" stroke-width="2"/>
<path d="M22 149H0" stroke="#9FBCD9" stroke-width="2"/>
<path d="M25.5 143L25.5 227.5" stroke="#418DD9" stroke-width="5"/>
<line y1="-2.5" x2="27" y2="-2.5" transform="matrix(-1 0 0 1 26 148)" stroke="#418DD9" stroke-width="5"/>
<path d="M61.5 125.5C61.5 121.844 64.2502 119 67.5 119C70.7498 119 73.5 121.844 73.5 125.5C73.5 129.156 70.7498 132 67.5 132C64.2502 132 61.5 129.156 61.5 125.5Z" fill="#418DD9" stroke="#9FBCD9" stroke-width="2"/>
<path d="M68.4998 126.5L-0.5 126.5" stroke="#418DD9" stroke-width="5"/>
<path d="M63.5 129.5H0" stroke="#9FBCD9" stroke-width="2"/>
<path d="M62.5 123L0 123" stroke="#9FBCD9" stroke-width="2"/>
<rect x="200" y="18" width="56" height="8" fill="#8C8C8C"/>
<rect x="200" y="71" width="12" height="8" fill="#8C8C8C"/>
<rect x="217" y="61" width="39" height="8" fill="#8C8C8C"/>
<rect x="222.876" y="66.2305" width="16.5534" height="8" transform="rotate(130.829 222.876 66.2305)" fill="#8C8C8C"/>
<rect x="200" y="216" width="56" height="8" fill="#8C8C8C"/>
<rect x="200" y="269" width="12" height="8" fill="#8C8C8C"/>
<rect x="217" y="259" width="39" height="8" fill="#8C8C8C"/>
<rect x="222.876" y="264.23" width="16.5534" height="8" transform="rotate(130.829 222.876 264.23)" fill="#8C8C8C"/>
<rect x="200" y="116" width="56" height="8" fill="#8C8C8C"/>
<rect x="200" y="169" width="12" height="8" fill="#8C8C8C"/>
<rect x="217" y="159" width="39" height="8" fill="#8C8C8C"/>
<rect x="222.876" y="164.23" width="16.5534" height="8" transform="rotate(130.829 222.876 164.23)" fill="#8C8C8C"/>
</g>
<defs>
<clipPath id="clip0">
<rect width="349" height="387" fill="white"/>
</clipPath>
</defs>
</svg>
