<svg width="281" height="373" viewBox="0 0 281 373" fill="none" xmlns="http://www.w3.org/2000/svg">
<g clip-path="url(#clip0)">
<path fill-rule="evenodd" clip-rule="evenodd" d="M159 277H27C14.856 277 5 266.696 5 254V24C5 11.304 14.856 1 27 1H159C171.144 1 181 11.304 181 24V254C181 266.696 171.144 277 159 277ZM170 218.545H16V254C16 260.348 20.939 265.5 27 265.5H159C165.072 265.5 170 260.348 170 254V218.545ZM93 253.045C86.917 253.045 82 247.893 82 241.545C82 235.197 86.917 230.045 93 230.045C99.072 230.045 103.989 235.197 103.989 241.545C103.989 247.893 99.072 253.045 93 253.045ZM170 57.5455H16V207.045H170V57.5455ZM159 12.5H27C20.939 12.5 16 17.6635 16 24V46.0455H170V24C170 17.6635 165.072 12.5 159 12.5ZM109.5 34.5455H76.5C73.464 34.5455 71 31.9695 71 28.7955C71 25.6215 73.464 23.0455 76.5 23.0455H109.5C112.536 23.0455 115 25.6215 115 28.7955C115 31.9695 112.536 34.5455 109.5 34.5455Z" fill="white" fill-opacity="0.4"/>
<g clip-path="url(#clip1)">
<path fill-rule="evenodd" clip-rule="evenodd" d="M5 153V285C5 297.144 15.304 307 28 307L258 307C270.696 307 281 297.144 281 285V153C281 140.856 270.696 131 258 131L28 131C15.304 131 5 140.856 5 153ZM63.4545 142L63.4545 296H28C21.652 296 16.5 291.061 16.5 285V153C16.5 146.928 21.652 142 28 142L63.4545 142ZM28.9545 219C28.9545 225.083 34.1065 230 40.4545 230C46.8025 230 51.9545 225.083 51.9545 219C51.9545 212.928 46.8025 208.011 40.4545 208.011C34.1065 208.011 28.9545 212.928 28.9545 219ZM224.455 142L224.455 296L74.9545 296L74.9545 142L224.455 142ZM269.5 153V285C269.5 291.061 264.336 296 258 296H235.954L235.954 142H258C264.336 142 269.5 146.928 269.5 153ZM247.454 202.5L247.454 235.5C247.454 238.536 250.03 241 253.204 241C256.378 241 258.954 238.536 258.954 235.5V202.5C258.954 199.464 256.378 197 253.204 197C250.03 197 247.454 199.464 247.454 202.5Z" fill="white"/>
<path d="M18.9893 328.241V333H16.2061V319.492H21.4756C22.4899 319.492 23.3805 319.678 24.1475 320.049C24.9206 320.42 25.5143 320.949 25.9287 321.635C26.3431 322.316 26.5503 323.092 26.5503 323.964C26.5503 325.287 26.0957 326.333 25.1865 327.1C24.2835 327.86 23.0311 328.241 21.4292 328.241H18.9893ZM18.9893 325.986H21.4756C22.2116 325.986 22.7713 325.813 23.1548 325.467C23.5444 325.12 23.7393 324.626 23.7393 323.982C23.7393 323.321 23.5444 322.786 23.1548 322.377C22.7651 321.969 22.2271 321.759 21.5405 321.747H18.9893V325.986ZM31.2539 330.764H37.1636V333H28.4707V319.492H31.2539V330.764ZM46.8955 327.146H41.5518V330.764H47.8232V333H38.7686V319.492H47.8047V321.747H41.5518V324.966H46.8955V327.146ZM57.082 330.217H52.2021L51.2744 333H48.3149L53.3433 319.492H55.9224L60.9785 333H58.019L57.082 330.217ZM52.9536 327.962H56.3306L54.6328 322.906L52.9536 327.962ZM69.2446 329.456C69.2446 328.93 69.0591 328.528 68.688 328.25C68.3169 327.965 67.6489 327.669 66.6841 327.359C65.7192 327.044 64.9554 326.735 64.3926 326.432C62.8587 325.603 62.0918 324.486 62.0918 323.083C62.0918 322.353 62.2959 321.703 62.7041 321.134C63.1185 320.559 63.7091 320.111 64.4761 319.789C65.2492 319.467 66.1151 319.307 67.0737 319.307C68.0386 319.307 68.8983 319.483 69.6528 319.835C70.4074 320.182 70.9919 320.674 71.4062 321.311C71.8268 321.948 72.0371 322.671 72.0371 323.481H69.2539C69.2539 322.863 69.0591 322.384 68.6694 322.043C68.2798 321.697 67.7324 321.524 67.0273 321.524C66.347 321.524 65.8182 321.669 65.4409 321.96C65.0636 322.244 64.875 322.622 64.875 323.092C64.875 323.531 65.0946 323.899 65.5337 324.196C65.979 324.493 66.6315 324.771 67.4912 325.031C69.0745 325.507 70.228 326.098 70.9517 326.803C71.6753 327.508 72.0371 328.386 72.0371 329.438C72.0371 330.606 71.5949 331.525 70.7104 332.193C69.826 332.855 68.6354 333.186 67.1387 333.186C66.0996 333.186 65.1533 332.997 64.2998 332.62C63.4463 332.236 62.7938 331.714 62.3423 331.052C61.897 330.39 61.6743 329.623 61.6743 328.751H64.4668C64.4668 330.242 65.3574 330.987 67.1387 330.987C67.8005 330.987 68.3169 330.854 68.688 330.588C69.0591 330.316 69.2446 329.938 69.2446 329.456ZM82.0566 327.146H76.7129V330.764H82.9844V333H73.9297V319.492H82.9658V321.747H76.7129V324.966H82.0566V327.146ZM98.96 321.747H94.8223V333H92.0391V321.747H87.957V319.492H98.96V321.747ZM110.779 319.492V328.389C110.779 329.867 110.315 331.036 109.388 331.896C108.466 332.756 107.204 333.186 105.603 333.186C104.025 333.186 102.773 332.768 101.845 331.933C100.917 331.098 100.444 329.951 100.426 328.491V319.492H103.209V328.408C103.209 329.292 103.419 329.938 103.84 330.347C104.267 330.749 104.854 330.95 105.603 330.95C107.167 330.95 107.962 330.127 107.987 328.482V319.492H110.779ZM118.062 328.055H115.845V333H113.062V319.492H118.081C119.676 319.492 120.907 319.848 121.773 320.559C122.639 321.27 123.072 322.275 123.072 323.574C123.072 324.496 122.871 325.266 122.469 325.884C122.073 326.497 121.47 326.985 120.66 327.35L123.582 332.87V333H120.595L118.062 328.055ZM115.845 325.801H118.09C118.789 325.801 119.33 325.625 119.713 325.272C120.097 324.913 120.289 324.422 120.289 323.797C120.289 323.16 120.106 322.659 119.741 322.294C119.382 321.929 118.829 321.747 118.081 321.747H115.845V325.801ZM136.181 333H133.397L127.979 324.112V333H125.196V319.492H127.979L133.407 328.398V319.492H136.181V333ZM148 325.578L150.811 319.492H153.854L149.419 328.102V333H146.59V328.102L142.155 319.492H145.208L148 325.578ZM165.905 326.552C165.905 327.882 165.67 329.048 165.2 330.05C164.73 331.052 164.056 331.825 163.178 332.369C162.306 332.913 161.304 333.186 160.172 333.186C159.052 333.186 158.054 332.917 157.175 332.378C156.297 331.84 155.617 331.073 155.134 330.078C154.652 329.076 154.408 327.925 154.401 326.626V325.958C154.401 324.629 154.639 323.46 155.116 322.452C155.598 321.437 156.275 320.661 157.147 320.123C158.026 319.579 159.028 319.307 160.153 319.307C161.279 319.307 162.278 319.579 163.15 320.123C164.028 320.661 164.705 321.437 165.182 322.452C165.664 323.46 165.905 324.626 165.905 325.949V326.552ZM163.085 325.94C163.085 324.524 162.831 323.447 162.324 322.711C161.817 321.975 161.093 321.607 160.153 321.607C159.219 321.607 158.499 321.972 157.992 322.702C157.485 323.426 157.228 324.49 157.222 325.894V326.552C157.222 327.931 157.475 329.001 157.982 329.762C158.49 330.523 159.219 330.903 160.172 330.903C161.106 330.903 161.823 330.538 162.324 329.809C162.825 329.073 163.079 328.003 163.085 326.599V325.94ZM178.151 319.492V328.389C178.151 329.867 177.688 331.036 176.76 331.896C175.838 332.756 174.576 333.186 172.975 333.186C171.397 333.186 170.145 332.768 169.217 331.933C168.29 331.098 167.816 329.951 167.798 328.491V319.492H170.581V328.408C170.581 329.292 170.791 329.938 171.212 330.347C171.639 330.749 172.226 330.95 172.975 330.95C174.539 330.95 175.334 330.127 175.359 328.482V319.492H178.151ZM185.434 328.055H183.217V333H180.434V319.492H185.453C187.048 319.492 188.279 319.848 189.145 320.559C190.011 321.27 190.444 322.275 190.444 323.574C190.444 324.496 190.243 325.266 189.841 325.884C189.445 326.497 188.842 326.985 188.032 327.35L190.954 332.87V333H187.967L185.434 328.055ZM183.217 325.801H185.462C186.161 325.801 186.702 325.625 187.085 325.272C187.469 324.913 187.661 324.422 187.661 323.797C187.661 323.16 187.478 322.659 187.113 322.294C186.755 321.929 186.201 321.747 185.453 321.747H183.217V325.801ZM197.3 333V319.492H201.456C202.644 319.492 203.704 319.761 204.638 320.299C205.578 320.831 206.311 321.592 206.837 322.582C207.363 323.565 207.625 324.684 207.625 325.94V326.562C207.625 327.817 207.366 328.933 206.846 329.911C206.333 330.888 205.606 331.646 204.666 332.184C203.726 332.722 202.665 332.994 201.484 333H197.3ZM200.083 321.747V330.764H201.428C202.517 330.764 203.349 330.409 203.924 329.697C204.499 328.986 204.793 327.969 204.805 326.645V325.931C204.805 324.558 204.521 323.519 203.952 322.813C203.383 322.102 202.551 321.747 201.456 321.747H200.083ZM217.784 327.146H212.44V330.764H218.712V333H209.657V319.492H218.693V321.747H212.44V324.966H217.784V327.146ZM225.336 329.651L228.397 319.492H231.496L226.792 333H223.889L219.204 319.492H222.293L225.336 329.651ZM235.736 333H232.953V319.492H235.736V333ZM248.928 328.5C248.823 329.954 248.285 331.098 247.314 331.933C246.349 332.768 245.075 333.186 243.492 333.186C241.76 333.186 240.396 332.604 239.4 331.441C238.411 330.272 237.916 328.671 237.916 326.636V325.81C237.916 324.511 238.145 323.367 238.603 322.377C239.06 321.388 239.713 320.63 240.56 320.104C241.414 319.573 242.403 319.307 243.529 319.307C245.087 319.307 246.343 319.724 247.295 320.559C248.248 321.394 248.798 322.566 248.947 324.075H246.164C246.096 323.203 245.851 322.572 245.431 322.183C245.016 321.787 244.382 321.589 243.529 321.589C242.601 321.589 241.905 321.923 241.441 322.591C240.984 323.253 240.749 324.282 240.736 325.68V326.701C240.736 328.16 240.956 329.227 241.395 329.901C241.84 330.576 242.539 330.913 243.492 330.913C244.351 330.913 244.992 330.718 245.412 330.328C245.839 329.932 246.083 329.323 246.145 328.5H248.928ZM258.883 327.146H253.539V330.764H259.811V333H250.756V319.492H259.792V321.747H253.539V324.966H258.883V327.146Z" fill="white"/>
</g>
<g clip-path="url(#clip2)">
<path d="M187.729 60.9859C214.564 8.38906 265.552 40.2206 248.84 77.7453L237.23 72.6633L248.967 103.361L281.052 91.0948L270.181 86.6263C298.462 18.651 204.283 -9.93295 187.729 60.9859V60.9859Z" fill="white"/>
</g>
</g>
<defs>
<clipPath id="clip0">
<rect width="281" height="373" fill="white"/>
</clipPath>
<clipPath id="clip1">
<rect width="264" height="276" transform="matrix(0 -1 -1 0 281 351)" fill="white"/>
</clipPath>
<clipPath id="clip2">
<rect x="261.067" y="6" width="86.6202" height="92.1426" transform="rotate(69.0773 261.067 6)" fill="white"/>
</clipPath>
</defs>
</svg>
