<?xml version="1.0" encoding="UTF-8" standalone="no"?>
<!DOCTYPE svg PUBLIC "-//W3C//DTD SVG 1.1//EN" "http://www.w3.org/Graphics/SVG/1.1/DTD/svg11.dtd">
<svg version="1.1" xmlns="http://www.w3.org/2000/svg" xmlns:xlink="http://www.w3.org/1999/xlink" preserveAspectRatio="xMidYMid meet" viewBox="0 0 640 640" width="640" height="640"><defs><path d="M180 31L260 31L260 111L180 111L180 31Z" id="a1intI1bXY"></path><path d="M380 31L460 31L460 111L380 111L380 31Z" id="c6MUo6z7TV"></path><path d="M80 131L160 131L160 211L80 211L80 131Z" id="b62kqFlVFV"></path><path d="M180 131L260 131L260 211L180 211L180 131Z" id="b3XOHJOt4T"></path><path d="M280 131L360 131L360 211L280 211L280 131Z" id="f1GNpGyJfl"></path><path d="M380 131L460 131L460 211L380 211L380 131Z" id="e4u8NgxzU"></path><path d="M480 131L560 131L560 211L480 211L480 131Z" id="a36hGA4pK8"></path><path d="M80 231L160 231L160 311L80 311L80 231Z" id="e4MFIezlk9"></path><path d="M180 231L260 231L260 311L180 311L180 231Z" id="bCAoqwKh"></path><path d="M280 231L360 231L360 311L280 311L280 231Z" id="agHn4tabq"></path><path d="M380 231L460 231L460 311L380 311L380 231Z" id="a3X4n6rBp9"></path><path d="M480 231L560 231L560 311L480 311L480 231Z" id="a1Vg87ZY9n"></path><path d="M80 331L160 331L160 411L80 411L80 331Z" id="a1UGIF2OSA"></path><path d="M180 331L260 331L260 411L180 411L180 331Z" id="b3B6sbFmXN"></path><path d="M280 331L360 331L360 411L280 411L280 331Z" id="c2qxW7EA5"></path><path d="M380 331L460 331L460 411L380 411L380 331Z" id="cgFBa3knm"></path><path d="M480 331L560 331L560 411L480 411L480 331Z" id="b6nXghHV4h"></path><path d="M180 431L260 431L260 511L180 511L180 431Z" id="c1blqNkat3"></path><path d="M280 431L360 431L360 511L280 511L280 431Z" id="ab04XTvVjc"></path><path d="M380 431L460 431L460 511L380 511L380 431Z" id="e9GBuGWBMy"></path><path d="M280 531L360 531L360 611L280 611L280 531Z" id="bkRMVRU5w"></path></defs><g><g><g><use xlink:href="#a1intI1bXY" opacity="1" fill="#88dfe2" fill-opacity="1"></use></g><g><use xlink:href="#c6MUo6z7TV" opacity="1" fill="#88dfe2" fill-opacity="1"></use></g><g><use xlink:href="#b62kqFlVFV" opacity="1" fill="#88dfe2" fill-opacity="1"></use></g><g><use xlink:href="#b3XOHJOt4T" opacity="1" fill="#88dfe2" fill-opacity="1"></use></g><g><use xlink:href="#f1GNpGyJfl" opacity="1" fill="#88dfe2" fill-opacity="1"></use></g><g><use xlink:href="#e4u8NgxzU" opacity="1" fill="#88dfe2" fill-opacity="1"></use></g><g><use xlink:href="#a36hGA4pK8" opacity="1" fill="#88dfe2" fill-opacity="1"></use></g><g><use xlink:href="#e4MFIezlk9" opacity="1" fill="#88dfe2" fill-opacity="1"></use></g><g><use xlink:href="#bCAoqwKh" opacity="1" fill="#88dfe2" fill-opacity="1"></use></g><g><use xlink:href="#agHn4tabq" opacity="1" fill="#88dfe2" fill-opacity="1"></use></g><g><use xlink:href="#a3X4n6rBp9" opacity="1" fill="#88dfe2" fill-opacity="1"></use></g><g><use xlink:href="#a1Vg87ZY9n" opacity="1" fill="#88dfe2" fill-opacity="1"></use></g><g><use xlink:href="#a1UGIF2OSA" opacity="1" fill="#88dfe2" fill-opacity="1"></use></g><g><use xlink:href="#b3B6sbFmXN" opacity="1" fill="#88dfe2" fill-opacity="1"></use></g><g><use xlink:href="#c2qxW7EA5" opacity="1" fill="#88dfe2" fill-opacity="1"></use></g><g><use xlink:href="#cgFBa3knm" opacity="1" fill="#88dfe2" fill-opacity="1"></use></g><g><use xlink:href="#b6nXghHV4h" opacity="1" fill="#88dfe2" fill-opacity="1"></use></g><g><use xlink:href="#c1blqNkat3" opacity="1" fill="#88dfe2" fill-opacity="1"></use></g><g><use xlink:href="#ab04XTvVjc" opacity="1" fill="#88dfe2" fill-opacity="1"></use></g><g><use xlink:href="#e9GBuGWBMy" opacity="1" fill="#88dfe2" fill-opacity="1"></use></g><g><use xlink:href="#bkRMVRU5w" opacity="1" fill="#88dfe2" fill-opacity="1"></use></g></g></g></svg>