<svg width="25" height="25" viewBox="0 0 25 25" fill="none" xmlns="http://www.w3.org/2000/svg">
<circle cx="12.5" cy="12.5" r="12.5" fill="#89D0D5"/>
<path fill-rule="evenodd" clip-rule="evenodd" d="M18.3333 19H5V6.16667H7C7.81933 6.16667 8.45333 5.53433 9 5H14.3333C14.88 5.53433 15.514 6.16667 16.3333 6.16667H18.3333V11.4167H17V7.33333H14.3333L13 8.5H10.4013L9 7.33333H6.33333V17.8333H17V14.9167H18.3333V19ZM11.6667 16.6667H7.66667V16.0833H11.6667V16.6667ZM11.6667 15.5H7.66667V14.9167H11.6667V15.5ZM15.6667 12.5833H21V13.75H15.6667V15.5L12.3333 13.1667L15.6667 10.8333V12.5833ZM11.6667 14.3333H7.66667V13.75H11.6667V14.3333ZM11.6667 13.1667H7.66667V12.5833H11.6667V13.1667ZM11.6667 12H7.66667V11.4167H11.6667V12ZM11.6667 10.8333H7.66667V10.25H11.6667V10.8333ZM11 6.75C11 7.072 11.2987 7.33333 11.6667 7.33333C12.0347 7.33333 12.3333 7.072 12.3333 6.75C12.3333 6.428 12.0347 6.16667 11.6667 6.16667C11.2987 6.16667 11 6.428 11 6.75Z" fill="#499CA2"/>
</svg>
