<svg width="720" height="794" viewBox="0 0 720 794" fill="none" xmlns="http://www.w3.org/2000/svg">
<g clip-path="url(#clip0)">
<path d="M41 70H118V736H51C45.4772 736 41 731.523 41 726V70Z" fill="#89D0D5"/>
<path d="M77 38H598C603.523 38 608 42.4772 608 48V726C608 731.523 603.523 736 598 736H87C81.4771 736 77 731.523 77 726V38Z" fill="#89D0D5"/>
<rect x="208" width="320" height="40" fill="#89D0D5"/>
<path d="M208.5 0L248.77 40.5H168.23L208.5 0Z" fill="#89D0D5"/>
<path d="M76.5 38L112.44 71H40.5599L76.5 38Z" fill="#89D0D5"/>
<path d="M528.5 0L568.77 40.5H488.23L528.5 0Z" fill="#89D0D5"/>
<ellipse cx="518" cy="25.5" rx="20" ry="19.5" fill="white"/>
<ellipse cx="228" cy="25.5" rx="20" ry="19.5" fill="white"/>
<ellipse cx="68" cy="578.5" rx="20" ry="19.5" fill="white"/>
<ellipse cx="582" cy="606.5" rx="20" ry="19.5" fill="white"/>
<rect x="571" y="52" width="27" height="188" fill="#404040"/>
<rect x="577" y="61" width="16" height="15" fill="black" stroke="#383535" stroke-width="2"/>
<rect x="577" y="83" width="16" height="15" fill="black" stroke="#383535" stroke-width="2"/>
<rect x="577" y="105" width="16" height="15" fill="black" stroke="#383535" stroke-width="2"/>
<rect x="577" y="127" width="16" height="15" fill="black" stroke="#383535" stroke-width="2"/>
<rect x="577" y="149" width="16" height="15" fill="black" stroke="#383535" stroke-width="2"/>
<rect x="577" y="171" width="16" height="15" fill="black" stroke="#383535" stroke-width="2"/>
<rect x="577" y="193" width="16" height="15" fill="black" stroke="#383535" stroke-width="2"/>
<rect x="577" y="215" width="16" height="15" fill="black" stroke="#383535" stroke-width="2"/>
<rect x="571" y="52" width="27" height="188" fill="#404040"/>
<rect x="577" y="61" width="16" height="15" fill="black" stroke="#383535" stroke-width="2"/>
<rect x="577" y="83" width="16" height="15" fill="black" stroke="#383535" stroke-width="2"/>
<rect x="577" y="105" width="16" height="15" fill="black" stroke="#383535" stroke-width="2"/>
<rect x="577" y="127" width="16" height="15" fill="black" stroke="#383535" stroke-width="2"/>
<rect x="577" y="149" width="16" height="15" fill="black" stroke="#383535" stroke-width="2"/>
<rect x="577" y="171" width="16" height="15" fill="black" stroke="#383535" stroke-width="2"/>
<rect x="577" y="193" width="16" height="15" fill="black" stroke="#383535" stroke-width="2"/>
<rect x="577" y="215" width="16" height="15" fill="black" stroke="#383535" stroke-width="2"/>
<rect x="54" y="76" width="27" height="273" fill="#404040"/>
<rect x="60" y="85" width="16" height="15" fill="black" stroke="#383535" stroke-width="2"/>
<rect x="60" y="107" width="16" height="15" fill="black" stroke="#383535" stroke-width="2"/>
<rect x="60" y="129" width="16" height="15" fill="black" stroke="#383535" stroke-width="2"/>
<rect x="60" y="151" width="16" height="15" fill="black" stroke="#383535" stroke-width="2"/>
<rect x="60" y="173" width="16" height="15" fill="black" stroke="#383535" stroke-width="2"/>
<rect x="60" y="195" width="16" height="15" fill="black" stroke="#383535" stroke-width="2"/>
<rect x="60" y="217" width="16" height="15" fill="black" stroke="#383535" stroke-width="2"/>
<rect x="60" y="239" width="16" height="15" fill="black" stroke="#383535" stroke-width="2"/>
<rect x="60" y="261" width="16" height="15" fill="black" stroke="#383535" stroke-width="2"/>
<rect x="60" y="283" width="16" height="15" fill="black" stroke="#383535" stroke-width="2"/>
<rect x="60" y="305" width="16" height="15" fill="black" stroke="#383535" stroke-width="2"/>
<rect x="60" y="327" width="16" height="15" fill="black" stroke="#383535" stroke-width="2"/>
<rect x="571" y="251" width="27" height="206" fill="#404040"/>
<rect x="577" y="282" width="16" height="15" fill="black" stroke="#383535" stroke-width="2"/>
<rect x="577" y="304" width="16" height="15" fill="black" stroke="#383535" stroke-width="2"/>
<rect x="577" y="326" width="16" height="15" fill="black" stroke="#383535" stroke-width="2"/>
<rect x="577" y="348" width="16" height="15" fill="black" stroke="#383535" stroke-width="2"/>
<rect x="577" y="370" width="16" height="15" fill="black" stroke="#383535" stroke-width="2"/>
<rect x="577" y="392" width="16" height="15" fill="black" stroke="#383535" stroke-width="2"/>
<rect x="577" y="414" width="16" height="15" fill="black" stroke="#383535" stroke-width="2"/>
<rect x="577" y="436" width="16" height="15" fill="black" stroke="#383535" stroke-width="2"/>
<rect x="577" y="260" width="16" height="15" fill="black" stroke="#383535" stroke-width="2"/>
<path d="M54 357H81V541H64C58.4772 541 54 536.523 54 531V357Z" fill="#404040"/>
<path d="M59 387H77V404H69C63.4772 404 59 399.523 59 394V387Z" fill="black"/>
<path d="M59 409H77V426H69C63.4772 426 59 421.523 59 416V409Z" fill="black"/>
<path d="M59 431H77V448H69C63.4772 448 59 443.523 59 438V431Z" fill="black"/>
<path d="M59 453H77V470H69C63.4772 470 59 465.523 59 460V453Z" fill="black"/>
<path d="M59 475H77V492H69C63.4772 492 59 487.523 59 482V475Z" fill="black"/>
<path d="M59 497H77V514H69C63.4772 514 59 509.523 59 504V497Z" fill="black"/>
<path d="M59 519H77V536H69C63.4772 536 59 531.523 59 526V519Z" fill="black"/>
<path d="M59 365H77V382H69C63.4772 382 59 377.523 59 372V365Z" fill="black"/>
<rect x="54" y="646" width="83" height="77" fill="#CCCCCC"/>
<line x1="55.5" y1="661" x2="55.5" y2="707" stroke="#89D0D5" stroke-width="3"/>
<line x1="136.5" y1="661" x2="136.5" y2="707" stroke="#89D0D5" stroke-width="3"/>
<ellipse cx="95" cy="684.5" rx="20" ry="19.5" fill="#852725"/>
<rect x="64" y="636" width="10" height="10" fill="#E6E6E6"/>
<rect x="64" y="723" width="10" height="10" fill="#E6E6E6"/>
<rect x="85" y="723" width="15" height="10" fill="#E6E6E6"/>
<rect x="118" y="723" width="10" height="10" fill="#E6E6E6"/>
<rect x="279" y="11" width="25" height="49" fill="#404040"/>
<path d="M278.5 18L284.995 9.75H272.005L278.5 18Z" fill="#89D0D5"/>
<path d="M278.5 52L284.995 60.25H272.005L278.5 52Z" fill="#89D0D5"/>
<path d="M304.5 52L310.995 60.25H298.005L304.5 52Z" fill="#89D0D5"/>
<path d="M304.5 18L310.995 9H298.005L304.5 18Z" fill="#89D0D5"/>
<rect x="286.75" y="21.75" width="9.5" height="7.5" fill="#A79F7B" stroke="#807A5F" stroke-width="1.5"/>
<rect x="286.75" y="43.75" width="9.5" height="7.5" fill="#A79F7B" stroke="#807A5F" stroke-width="1.5"/>
<rect x="305" y="11" width="25" height="49" fill="#404040"/>
<path d="M304.5 18L310.995 9.75H298.005L304.5 18Z" fill="#89D0D5"/>
<path d="M304.5 52L310.995 60.25H298.005L304.5 52Z" fill="#89D0D5"/>
<path d="M330.5 52L336.995 60.25H324.005L330.5 52Z" fill="#89D0D5"/>
<path d="M330.5 18L336.995 9H324.005L330.5 18Z" fill="#89D0D5"/>
<rect x="312.75" y="21.75" width="9.5" height="7.5" fill="#A79F7B" stroke="#807A5F" stroke-width="1.5"/>
<rect x="312.75" y="43.75" width="9.5" height="7.5" fill="#A79F7B" stroke="#807A5F" stroke-width="1.5"/>
<rect x="331" y="11" width="25" height="49" fill="#404040"/>
<path d="M330.5 18L336.995 9.75H324.005L330.5 18Z" fill="#89D0D5"/>
<path d="M330.5 52L336.995 60.25H324.005L330.5 52Z" fill="#89D0D5"/>
<path d="M356.5 52L362.995 60.25H350.005L356.5 52Z" fill="#89D0D5"/>
<path d="M356.5 18L362.995 9H350.005L356.5 18Z" fill="#89D0D5"/>
<rect x="338.75" y="21.75" width="9.5" height="7.5" fill="#A79F7B" stroke="#807A5F" stroke-width="1.5"/>
<rect x="338.75" y="43.75" width="9.5" height="7.5" fill="#A79F7B" stroke="#807A5F" stroke-width="1.5"/>
<rect x="422" y="45" width="60" height="47" fill="#333333"/>
<line x1="137" y1="59" x2="137" y2="92" stroke="white" stroke-width="4"/>
<line x1="530" y1="53" x2="530" y2="100" stroke="white" stroke-width="4"/>
<rect x="166" y="646" width="124" height="145" fill="#C4C4C4"/>
<rect x="166" y="763" width="124" height="31" fill="#999999"/>
<rect x="290" y="717" width="17" height="19" fill="#C4C4C4"/>
<rect x="149" y="717" width="17" height="19" fill="#B0B0B0"/>
<rect x="277" y="645" width="13" height="146" fill="white" fill-opacity="0.2"/>
<rect x="150" y="731" width="16" height="5" fill="black" fill-opacity="0.1"/>
<rect x="166" y="646" width="14" height="146" fill="black" fill-opacity="0.15"/>
<rect x="444" y="613" width="91" height="108" fill="#303030"/>
<rect x="439" y="717" width="102" height="29" fill="#303030"/>
<rect x="446" y="615" width="9" height="102" fill="white" fill-opacity="0.15"/>
<rect x="440" y="719" width="7" height="25" fill="white" fill-opacity="0.15"/>
<rect x="533" y="719" width="7" height="25" fill="black" fill-opacity="0.2"/>
<rect x="356" y="658" width="66" height="32" fill="#303030"/>
<rect x="370" y="690" width="38" height="17" fill="#C4C4C4"/>
<path d="M590 332.5C590 336.156 587.25 339 584 339C580.75 339 578 336.156 578 332.5C578 328.844 580.75 326 584 326C587.25 326 590 328.844 590 332.5Z" fill="#418DD9" stroke="#9FBCD9" stroke-width="2"/>
<line x1="589" y1="329" x2="704" y2="329" stroke="#9FBCD9" stroke-width="2"/>
<line x1="589" y1="336" x2="703" y2="336" stroke="#9FBCD9" stroke-width="2"/>
<line x1="699.874" y1="540" x2="699.874" y2="105" stroke="#418DD9" stroke-width="5"/>
<path d="M703 541.001L703 111" stroke="#9FBCD9" stroke-width="2"/>
<path d="M697 105V546" stroke="#9FBCD9" stroke-width="2"/>
<line x1="699" y1="107.5" x2="722" y2="107.5" stroke="#418DD9" stroke-width="5"/>
<line x1="696" y1="104" x2="722" y2="104" stroke="#9FBCD9" stroke-width="2"/>
<line x1="702" y1="110" x2="722" y2="110" stroke="#9FBCD9" stroke-width="2"/>
<line x1="704" y1="539" x2="720" y2="539" stroke="#9FBCD9" stroke-width="2"/>
<path d="M696 546H720" stroke="#9FBCD9" stroke-width="2"/>
<line x1="698" y1="542.5" x2="720" y2="542.5" stroke="#418DD9" stroke-width="5"/>
<line x1="585" y1="332.5" x2="699" y2="332.5" stroke="#418DD9" stroke-width="5"/>
<path d="M647 131L726 131" stroke="#9FBCD9" stroke-width="2"/>
<path d="M591 91.5C591 95.156 588.25 98 585 98C581.75 98 579 95.156 579 91.5C579 87.844 581.75 85 585 85C588.25 85 591 87.844 591 91.5Z" fill="#418DD9" stroke="#9FBCD9" stroke-width="2"/>
<path d="M590 88L656 88.5" stroke="#9FBCD9" stroke-width="2"/>
<path d="M655 131V88" stroke="#9FBCD9" stroke-width="2"/>
<path d="M648 131.5V88" stroke="#9FBCD9" stroke-width="2"/>
<line x1="590" y1="95" x2="648" y2="95" stroke="#9FBCD9" stroke-width="2"/>
<path d="M654 124.5L724 124.5" stroke="#9FBCD9" stroke-width="2"/>
<path d="M651.5 94V130.5" stroke="#418DD9" stroke-width="5"/>
<path d="M589 91.5H654" stroke="#418DD9" stroke-width="5"/>
<path d="M654 128H725.002" stroke="#418DD9" stroke-width="5"/>
<path d="M589 68.5C589 72.156 586.25 75 583 75C579.75 75 577 72.156 577 68.5C577 64.844 579.75 62 583 62C586.25 62 589 64.844 589 68.5Z" fill="#A09C00" stroke="#E6AB00" stroke-width="2"/>
<path d="M666 151H722" stroke="#E6AB00" stroke-width="2"/>
<line x1="588" y1="65" x2="673" y2="65" stroke="#E6AB00" stroke-width="2"/>
<line x1="672" y1="145" x2="672" y2="65" stroke="#E6AB00" stroke-width="2"/>
<path d="M665 151.5V73" stroke="#E6AB00" stroke-width="2"/>
<line x1="588" y1="72" x2="666" y2="72" stroke="#E6AB00" stroke-width="2"/>
<path d="M673 144H722" stroke="#E6AB00" stroke-width="2"/>
<line x1="668.5" y1="66" x2="668.5" y2="145" stroke="#A09C00" stroke-width="5"/>
<line x1="666" y1="147.5" x2="722" y2="147.5" stroke="#A09C00" stroke-width="5"/>
<path d="M61 135.5C61 139.156 63.7502 142 67 142C70.2498 142 73 139.156 73 135.5C73 131.844 70.2498 129 67 129C63.7502 129 61 131.844 61 135.5Z" fill="#418DD9" stroke="#9FBCD9" stroke-width="2"/>
<path d="M29 187H4.76837e-07" stroke="#9FBCD9" stroke-width="2"/>
<line x1="68" y1="135.5" x2="22" y2="135.5" stroke="#418DD9" stroke-width="5"/>
<line x1="63" y1="133" x2="20" y2="133" stroke="#9FBCD9" stroke-width="2"/>
<line x1="21" y1="179" x2="21" y2="134" stroke="#9FBCD9" stroke-width="2"/>
<path d="M28 187L28 138" stroke="#9FBCD9" stroke-width="2"/>
<line x1="63" y1="139" x2="28" y2="139" stroke="#9FBCD9" stroke-width="2"/>
<path d="M22 180H2.68221e-07" stroke="#9FBCD9" stroke-width="2"/>
<line x1="24.5" y1="184" x2="24.5" y2="136" stroke="#418DD9" stroke-width="5"/>
<line x1="27" y1="183.5" y2="183.5" stroke="#418DD9" stroke-width="5"/>
<path d="M666 151H722" stroke="#9FBCD9" stroke-width="2"/>
<path d="M589 68.5C589 72.156 586.25 75 583 75C579.75 75 577 72.156 577 68.5C577 64.844 579.75 62 583 62C586.25 62 589 64.844 589 68.5Z" fill="#418DD9" stroke="#9FBCD9" stroke-width="2"/>
<line x1="588" y1="65" x2="673" y2="65" stroke="#9FBCD9" stroke-width="2"/>
<line x1="672" y1="145" x2="672" y2="65" stroke="#9FBCD9" stroke-width="2"/>
<path d="M665 151.5V73" stroke="#9FBCD9" stroke-width="2"/>
<line x1="588" y1="72" x2="666" y2="72" stroke="#9FBCD9" stroke-width="2"/>
<path d="M673 144H722" stroke="#9FBCD9" stroke-width="2"/>
<line x1="668.5" y1="66" x2="668.5" y2="145" stroke="#418DD9" stroke-width="5"/>
<line x1="666" y1="147.5" x2="722" y2="147.5" stroke="#418DD9" stroke-width="5"/>
<line x1="581" y1="68.5" x2="668.049" y2="68.5" stroke="#418DD9" stroke-width="5"/>
<line x1="697" y1="330" x2="697" y2="335" stroke="#418DD9" stroke-width="2"/>
</g>
<defs>
<clipPath id="clip0">
<rect width="720" height="794" fill="white"/>
</clipPath>
</defs>
</svg>
